<mxfile host="app.diagrams.net" agent="Mozilla/5.0 (Windows NT 10.0; Win64; x64) AppleWebKit/537.36 (KHTML, like Gecko) Chrome/124.0.0.0 Safari/537.36" version="24.8.4">
  <diagram name="Use case diagram" id="xtZunVuRfSpyqEBUtS4J">
    <mxGraphModel dx="1509" dy="777" grid="1" gridSize="10" guides="1" tooltips="1" connect="1" arrows="1" fold="1" page="1" pageScale="1" pageWidth="850" pageHeight="1100" math="0" shadow="0">
      <root>
        <mxCell id="0" />
        <mxCell id="1" parent="0" />
        <mxCell id="i_DUv70KCGooywqwRf0s-3" value="" style="rounded=0;orthogonalLoop=1;jettySize=auto;html=1;strokeColor=default;endArrow=none;endFill=0;exitX=1;exitY=0.3333333333333333;exitDx=0;exitDy=0;exitPerimeter=0;" parent="1" target="i_DUv70KCGooywqwRf0s-2" edge="1" source="Qo3CJPkrSob604qk2q2i-7">
          <mxGeometry relative="1" as="geometry">
            <mxPoint x="100" y="250" as="sourcePoint" />
          </mxGeometry>
        </mxCell>
        <mxCell id="i_DUv70KCGooywqwRf0s-1" value="Player" style="shape=umlActor;verticalLabelPosition=bottom;verticalAlign=top;html=1;outlineConnect=0;rounded=1;" parent="1" vertex="1">
          <mxGeometry x="40" y="630" width="60" height="120" as="geometry" />
        </mxCell>
        <mxCell id="i_DUv70KCGooywqwRf0s-2" value="Start Game Setup &amp;amp; Player Introduction" style="ellipse;whiteSpace=wrap;html=1;verticalAlign=middle;rounded=1;align=center;labelPosition=center;verticalLabelPosition=middle;" parent="1" vertex="1">
          <mxGeometry x="130" y="410" width="130" height="60" as="geometry" />
        </mxCell>
        <mxCell id="vSMD2bVpbC3IDvef_Gb8-3" value="&lt;div style=&quot;&quot;&gt;&amp;lt;&amp;lt;extend&amp;gt;&amp;gt;&lt;/div&gt;" style="rounded=0;orthogonalLoop=1;jettySize=auto;html=1;exitX=1;exitY=0;exitDx=0;exitDy=0;entryX=0.5;entryY=1;entryDx=0;entryDy=0;endArrow=none;endFill=0;startArrow=open;startFill=0;dashed=1;align=center;jumpStyle=none;" parent="1" source="i_DUv70KCGooywqwRf0s-4" target="i_DUv70KCGooywqwRf0s-5" edge="1">
          <mxGeometry x="0.1818" relative="1" as="geometry">
            <mxPoint as="offset" />
          </mxGeometry>
        </mxCell>
        <mxCell id="i_DUv70KCGooywqwRf0s-4" value="Move Player &amp;amp; Manage Resources" style="ellipse;whiteSpace=wrap;html=1;verticalAlign=middle;rounded=1;align=center;labelPosition=center;verticalLabelPosition=middle;" parent="1" vertex="1">
          <mxGeometry x="320" y="540" width="150" height="50" as="geometry" />
        </mxCell>
        <mxCell id="i_DUv70KCGooywqwRf0s-5" value="Resolve End of Round" style="ellipse;whiteSpace=wrap;html=1;verticalAlign=middle;rounded=1;align=center;labelPosition=center;verticalLabelPosition=middle;" parent="1" vertex="1">
          <mxGeometry x="410" y="100" width="120" height="50" as="geometry" />
        </mxCell>
        <mxCell id="i_DUv70KCGooywqwRf0s-6" value="Determine Game Winner" style="ellipse;whiteSpace=wrap;html=1;verticalAlign=middle;rounded=1;align=center;labelPosition=center;verticalLabelPosition=middle;" parent="1" vertex="1">
          <mxGeometry x="225" y="230" width="90" height="52" as="geometry" />
        </mxCell>
        <mxCell id="i_DUv70KCGooywqwRf0s-7" value="Adjust Point Values" style="ellipse;whiteSpace=wrap;html=1;verticalAlign=middle;rounded=1;align=center;labelPosition=center;verticalLabelPosition=middle;" parent="1" vertex="1">
          <mxGeometry x="135" y="525" width="120" height="50" as="geometry" />
        </mxCell>
        <mxCell id="i_DUv70KCGooywqwRf0s-8" value="Plan Resource Use Strategically" style="ellipse;whiteSpace=wrap;html=1;verticalAlign=middle;rounded=1;align=center;labelPosition=center;verticalLabelPosition=middle;" parent="1" vertex="1">
          <mxGeometry x="640" y="540" width="120" height="50" as="geometry" />
        </mxCell>
        <mxCell id="vSMD2bVpbC3IDvef_Gb8-2" value="" style="rounded=0;orthogonalLoop=1;jettySize=auto;html=1;strokeColor=default;endArrow=none;endFill=0;exitX=0;exitY=0.5;exitDx=0;exitDy=0;entryX=1;entryY=0.3333333333333333;entryDx=0;entryDy=0;entryPerimeter=0;" parent="1" source="i_DUv70KCGooywqwRf0s-4" target="i_DUv70KCGooywqwRf0s-1" edge="1">
          <mxGeometry relative="1" as="geometry">
            <mxPoint x="110" y="618" as="sourcePoint" />
            <mxPoint x="300" y="618" as="targetPoint" />
          </mxGeometry>
        </mxCell>
        <mxCell id="vSMD2bVpbC3IDvef_Gb8-4" value="Handle New Potholes Mid-Game" style="ellipse;whiteSpace=wrap;html=1;verticalAlign=middle;rounded=1;align=center;labelPosition=center;verticalLabelPosition=middle;" parent="1" vertex="1">
          <mxGeometry x="640" y="95" width="100" height="60" as="geometry" />
        </mxCell>
        <mxCell id="Qo3CJPkrSob604qk2q2i-1" value="&lt;div style=&quot;&quot;&gt;&amp;lt;&amp;lt;extend&amp;gt;&amp;gt;&lt;/div&gt;" style="rounded=0;orthogonalLoop=1;jettySize=auto;html=1;entryX=0.5;entryY=0;entryDx=0;entryDy=0;endArrow=none;endFill=0;startArrow=open;startFill=0;dashed=1;align=center;jumpStyle=none;" parent="1" source="i_DUv70KCGooywqwRf0s-2" target="i_DUv70KCGooywqwRf0s-7" edge="1">
          <mxGeometry x="-0.2" relative="1" as="geometry">
            <mxPoint x="387.5" y="200" as="sourcePoint" />
            <mxPoint x="202.5" y="348" as="targetPoint" />
            <mxPoint as="offset" />
          </mxGeometry>
        </mxCell>
        <mxCell id="Qo3CJPkrSob604qk2q2i-3" value="&lt;div style=&quot;&quot;&gt;&amp;lt;&amp;lt;include&amp;gt;&amp;gt;&lt;/div&gt;" style="rounded=0;orthogonalLoop=1;jettySize=auto;html=1;exitX=0;exitY=0.5;exitDx=0;exitDy=0;endArrow=none;endFill=0;startArrow=open;startFill=0;dashed=1;align=center;jumpStyle=none;" parent="1" source="vSMD2bVpbC3IDvef_Gb8-4" target="i_DUv70KCGooywqwRf0s-5" edge="1">
          <mxGeometry x="0.1429" y="-15" relative="1" as="geometry">
            <mxPoint x="785" y="613" as="sourcePoint" />
            <mxPoint x="600" y="761" as="targetPoint" />
            <mxPoint as="offset" />
          </mxGeometry>
        </mxCell>
        <mxCell id="Qo3CJPkrSob604qk2q2i-4" value="&lt;div style=&quot;&quot;&gt;&amp;lt;&amp;lt;include&amp;gt;&amp;gt;&lt;/div&gt;" style="rounded=0;orthogonalLoop=1;jettySize=auto;html=1;endArrow=none;endFill=0;startArrow=open;startFill=0;dashed=1;align=center;jumpStyle=none;entryX=1;entryY=1;entryDx=0;entryDy=0;exitX=0.5;exitY=0;exitDx=0;exitDy=0;" parent="1" source="Qo3CJPkrSob604qk2q2i-15" target="i_DUv70KCGooywqwRf0s-6" edge="1">
          <mxGeometry x="-0.0914" y="-2" relative="1" as="geometry">
            <mxPoint x="360" y="470" as="sourcePoint" />
            <mxPoint x="540" y="590" as="targetPoint" />
            <mxPoint as="offset" />
          </mxGeometry>
        </mxCell>
        <mxCell id="Qo3CJPkrSob604qk2q2i-7" value="Game System" style="shape=umlActor;verticalLabelPosition=bottom;verticalAlign=top;html=1;outlineConnect=0;rounded=1;" parent="1" vertex="1">
          <mxGeometry x="40" y="215" width="60" height="120" as="geometry" />
        </mxCell>
        <mxCell id="Qo3CJPkrSob604qk2q2i-8" value="" style="rounded=0;orthogonalLoop=1;jettySize=auto;html=1;strokeColor=default;endArrow=none;endFill=0;entryX=0;entryY=0.5;entryDx=0;entryDy=0;exitX=1;exitY=0.3333333333333333;exitDx=0;exitDy=0;exitPerimeter=0;" parent="1" target="i_DUv70KCGooywqwRf0s-6" edge="1" source="Qo3CJPkrSob604qk2q2i-7">
          <mxGeometry relative="1" as="geometry">
            <mxPoint x="100" y="250" as="sourcePoint" />
            <mxPoint x="223" y="166" as="targetPoint" />
          </mxGeometry>
        </mxCell>
        <mxCell id="Qo3CJPkrSob604qk2q2i-9" value="" style="rounded=0;orthogonalLoop=1;jettySize=auto;html=1;strokeColor=default;endArrow=none;endFill=0;entryX=0;entryY=0.5;entryDx=0;entryDy=0;exitX=1;exitY=0.3333333333333333;exitDx=0;exitDy=0;exitPerimeter=0;" parent="1" target="i_DUv70KCGooywqwRf0s-5" edge="1" source="Qo3CJPkrSob604qk2q2i-7">
          <mxGeometry relative="1" as="geometry">
            <mxPoint x="100" y="250" as="sourcePoint" />
            <mxPoint x="210" y="256" as="targetPoint" />
          </mxGeometry>
        </mxCell>
        <mxCell id="Qo3CJPkrSob604qk2q2i-15" value="Track Player Score" style="ellipse;whiteSpace=wrap;html=1;verticalAlign=middle;rounded=1;align=center;labelPosition=center;verticalLabelPosition=middle;" parent="1" vertex="1">
          <mxGeometry x="310" y="360" width="100" height="50" as="geometry" />
        </mxCell>
        <mxCell id="Qo3CJPkrSob604qk2q2i-16" value="&lt;div style=&quot;&quot;&gt;&amp;lt;&amp;lt;include&amp;gt;&amp;gt;&lt;/div&gt;" style="rounded=0;orthogonalLoop=1;jettySize=auto;html=1;endArrow=none;endFill=0;startArrow=open;startFill=0;dashed=1;align=center;jumpStyle=none;exitX=0.5;exitY=1;exitDx=0;exitDy=0;entryX=0.63;entryY=0.003;entryDx=0;entryDy=0;entryPerimeter=0;" parent="1" source="Qo3CJPkrSob604qk2q2i-15" target="i_DUv70KCGooywqwRf0s-4" edge="1">
          <mxGeometry x="0.1409" y="-4" relative="1" as="geometry">
            <mxPoint x="548" y="597" as="sourcePoint" />
            <mxPoint x="590" y="650" as="targetPoint" />
            <mxPoint as="offset" />
          </mxGeometry>
        </mxCell>
        <mxCell id="M5QZkY9UcsKAtR6fMrL0-1" value="Allocate Starting Resources" style="ellipse;whiteSpace=wrap;html=1;verticalAlign=middle;rounded=1;align=center;labelPosition=center;verticalLabelPosition=middle;" parent="1" vertex="1">
          <mxGeometry x="225" y="40" width="120" height="50" as="geometry" />
        </mxCell>
        <mxCell id="M5QZkY9UcsKAtR6fMrL0-2" value="" style="rounded=0;orthogonalLoop=1;jettySize=auto;html=1;strokeColor=default;endArrow=none;endFill=0;entryX=0;entryY=1;entryDx=0;entryDy=0;exitX=1;exitY=0.3333333333333333;exitDx=0;exitDy=0;exitPerimeter=0;" parent="1" target="M5QZkY9UcsKAtR6fMrL0-1" edge="1" source="Qo3CJPkrSob604qk2q2i-7">
          <mxGeometry relative="1" as="geometry">
            <mxPoint x="100" y="250" as="sourcePoint" />
            <mxPoint x="350" y="256" as="targetPoint" />
          </mxGeometry>
        </mxCell>
        <mxCell id="Gk_G7Ch_RsXF_VZHo3o1-1" value="Encounter Knowledge" style="ellipse;whiteSpace=wrap;html=1;verticalAlign=middle;rounded=1;align=center;labelPosition=center;verticalLabelPosition=middle;" parent="1" vertex="1">
          <mxGeometry x="350" y="700" width="90" height="50" as="geometry" />
        </mxCell>
        <mxCell id="Gk_G7Ch_RsXF_VZHo3o1-2" value="Play Tutorial" style="ellipse;whiteSpace=wrap;html=1;verticalAlign=middle;rounded=1;align=center;labelPosition=center;verticalLabelPosition=middle;" parent="1" vertex="1">
          <mxGeometry x="225" y="820" width="90" height="30" as="geometry" />
        </mxCell>
        <mxCell id="Gk_G7Ch_RsXF_VZHo3o1-3" value="Answer Knowledge Question" style="ellipse;whiteSpace=wrap;html=1;verticalAlign=middle;rounded=1;align=center;labelPosition=center;verticalLabelPosition=middle;" parent="1" vertex="1">
          <mxGeometry x="465" y="810" width="90" height="50" as="geometry" />
        </mxCell>
        <mxCell id="Gk_G7Ch_RsXF_VZHo3o1-4" value="&lt;div style=&quot;&quot;&gt;&amp;lt;&amp;lt;extend&amp;gt;&amp;gt;&lt;/div&gt;" style="rounded=0;orthogonalLoop=1;jettySize=auto;html=1;entryX=0.5;entryY=0;entryDx=0;entryDy=0;endArrow=none;endFill=0;startArrow=open;startFill=0;dashed=1;align=center;jumpStyle=none;exitX=0;exitY=0.5;exitDx=0;exitDy=0;" parent="1" source="Gk_G7Ch_RsXF_VZHo3o1-1" target="Gk_G7Ch_RsXF_VZHo3o1-2" edge="1">
          <mxGeometry x="0.1988" y="-6" relative="1" as="geometry">
            <mxPoint x="236" y="915" as="sourcePoint" />
            <mxPoint x="390" y="890" as="targetPoint" />
            <mxPoint as="offset" />
          </mxGeometry>
        </mxCell>
        <mxCell id="Gk_G7Ch_RsXF_VZHo3o1-5" value="&lt;div style=&quot;&quot;&gt;&amp;lt;&amp;lt;extend&amp;gt;&amp;gt;&lt;/div&gt;" style="rounded=0;orthogonalLoop=1;jettySize=auto;html=1;entryX=0.5;entryY=0;entryDx=0;entryDy=0;endArrow=none;endFill=0;startArrow=open;startFill=0;dashed=1;align=center;jumpStyle=none;exitX=1;exitY=0.5;exitDx=0;exitDy=0;" parent="1" source="Gk_G7Ch_RsXF_VZHo3o1-1" target="Gk_G7Ch_RsXF_VZHo3o1-3" edge="1">
          <mxGeometry x="0.1362" y="-10" relative="1" as="geometry">
            <mxPoint x="355" y="940" as="sourcePoint" />
            <mxPoint x="495" y="860" as="targetPoint" />
            <mxPoint as="offset" />
          </mxGeometry>
        </mxCell>
        <mxCell id="Gk_G7Ch_RsXF_VZHo3o1-6" value="&lt;div style=&quot;&quot;&gt;&amp;lt;&amp;lt;include&amp;gt;&amp;gt;&lt;/div&gt;" style="rounded=0;orthogonalLoop=1;jettySize=auto;html=1;exitX=0;exitY=0.5;exitDx=0;exitDy=0;endArrow=none;endFill=0;startArrow=open;startFill=0;dashed=1;align=center;jumpStyle=none;entryX=1;entryY=0.5;entryDx=0;entryDy=0;" parent="1" source="Gk_G7Ch_RsXF_VZHo3o1-3" target="Gk_G7Ch_RsXF_VZHo3o1-2" edge="1">
          <mxGeometry x="0.0227" y="-11" relative="1" as="geometry">
            <mxPoint x="440" y="902" as="sourcePoint" />
            <mxPoint x="531" y="865" as="targetPoint" />
            <mxPoint as="offset" />
          </mxGeometry>
        </mxCell>
        <mxCell id="JbGaIRxd_xf0KVDo2_7p-2" value="&lt;div style=&quot;&quot;&gt;&amp;lt;&amp;lt;extend&amp;gt;&amp;gt;&lt;/div&gt;" style="rounded=0;orthogonalLoop=1;jettySize=auto;html=1;entryX=0.5;entryY=0;entryDx=0;entryDy=0;endArrow=none;endFill=0;startArrow=open;startFill=0;dashed=1;align=center;jumpStyle=none;exitX=0.5;exitY=1;exitDx=0;exitDy=0;" parent="1" source="i_DUv70KCGooywqwRf0s-4" target="Gk_G7Ch_RsXF_VZHo3o1-1" edge="1">
          <mxGeometry relative="1" as="geometry">
            <mxPoint x="110" y="870" as="sourcePoint" />
            <mxPoint x="210" y="800" as="targetPoint" />
            <mxPoint as="offset" />
          </mxGeometry>
        </mxCell>
        <mxCell id="FUP2jWrs1B8CLhbwvG2T-1" value="" style="rounded=0;orthogonalLoop=1;jettySize=auto;html=1;strokeColor=default;endArrow=none;endFill=0;entryX=0.33;entryY=0.003;entryDx=0;entryDy=0;exitX=1;exitY=0.3333333333333333;exitDx=0;exitDy=0;exitPerimeter=0;entryPerimeter=0;" edge="1" parent="1" source="Qo3CJPkrSob604qk2q2i-7" target="i_DUv70KCGooywqwRf0s-4">
          <mxGeometry relative="1" as="geometry">
            <mxPoint x="100" y="250" as="sourcePoint" />
            <mxPoint x="298" y="337" as="targetPoint" />
          </mxGeometry>
        </mxCell>
        <mxCell id="FUP2jWrs1B8CLhbwvG2T-4" value="&lt;div style=&quot;&quot;&gt;&amp;lt;&amp;lt;include&amp;gt;&amp;gt;&lt;/div&gt;" style="rounded=0;orthogonalLoop=1;jettySize=auto;html=1;endArrow=none;endFill=0;startArrow=open;startFill=0;dashed=1;align=center;jumpStyle=none;exitX=0;exitY=0.5;exitDx=0;exitDy=0;entryX=1;entryY=0.5;entryDx=0;entryDy=0;" edge="1" parent="1" source="i_DUv70KCGooywqwRf0s-8" target="i_DUv70KCGooywqwRf0s-4">
          <mxGeometry x="0.0286" y="-15" relative="1" as="geometry">
            <mxPoint x="710" y="645" as="sourcePoint" />
            <mxPoint x="454" y="522" as="targetPoint" />
            <mxPoint as="offset" />
          </mxGeometry>
        </mxCell>
        <mxCell id="FUP2jWrs1B8CLhbwvG2T-5" value="" style="rounded=0;orthogonalLoop=1;jettySize=auto;html=1;strokeColor=default;endArrow=none;endFill=0;exitX=0.5;exitY=1;exitDx=0;exitDy=0;" edge="1" parent="1" source="i_DUv70KCGooywqwRf0s-7">
          <mxGeometry relative="1" as="geometry">
            <mxPoint x="325" y="560" as="sourcePoint" />
            <mxPoint x="100" y="670" as="targetPoint" />
          </mxGeometry>
        </mxCell>
      </root>
    </mxGraphModel>
  </diagram>
</mxfile>
